<svg xmlns="http://www.w3.org/2000/svg" width="96.686" height="91.708" viewBox="0 0 96.686 91.708">
  <g id="Group_9" data-name="Group 9" transform="translate(-4.003 -54.703)">
    <g id="Group_5" data-name="Group 5" transform="translate(1 -3)">
      <g id="Group_3" data-name="Group 3">
        <path id="Path_4" data-name="Path 4" d="M75.72,67.09a4.886,4.886,0,0,1-.05.66L74.11,78.91,72.12,93.13l-9.37-1.31,2.18-15.53.33-2.35a4.718,4.718,0,0,0-3.37-5.2,42.025,42.025,0,0,0-22.21-.23,41.4,41.4,0,0,0-12.81,5.92,4.719,4.719,0,0,0-1.65,5.76l1.55,3.61,6.15,14.31-8.69,3.74L18.95,89.57,13.72,77.4a4.752,4.752,0,0,1,1.06-5.27,52.394,52.394,0,0,1,10.48-7.84,51.419,51.419,0,0,1,11.98-4.92,52.6,52.6,0,0,1,35.77,3.45,4.724,4.724,0,0,1,2.71,4.27Z" fill="#fff"/>
        <path id="Path_5" data-name="Path 5" d="M32.92,98.11l-8.69,3.74L18.95,89.57l7.82-5.77Z" fill="#d3d3d3"/>
        <path id="Path_6" data-name="Path 6" d="M74.11,78.91,72.12,93.13l-9.37-1.31,2.18-15.53Z" fill="#d3d3d3"/>
      </g>
      <g id="Group_4" data-name="Group 4">
        <path id="Path_7" data-name="Path 7" d="M89.29,126.72a38.089,38.089,0,0,1-6.91,14.08l-50.84,8.61a38.245,38.245,0,1,1,57.75-22.69Z" transform="translate(-0.003 0.001)" fill="#fff"/>
        <path id="Path_8" data-name="Path 8" d="M49.77,132.35A19.912,19.912,0,1,1,74,118,19.912,19.912,0,0,1,49.77,132.35Zm9.32-36.43a17.687,17.687,0,1,0,12.75,21.52A17.687,17.687,0,0,0,59.09,95.92Z" transform="translate(-2.799 0.857)" fill="#d3d3d3"/>
      </g>
    </g>
    <g id="Group_10" data-name="Group 10" transform="translate(-30 11)">
      <g id="Group_8" data-name="Group 8" transform="translate(27 80.853)">
        <path id="Path_9" data-name="Path 9" d="M106.1,15.368c2.736,5.786-.486,11.11-6.47,12.577a27.783,27.783,0,0,1-17.62-2.073c-4.764-2.2-8.843-5.654-13.475-8.126A37.108,37.108,0,0,0,43.15,14.317" transform="translate(-4.286)" fill="none" stroke="#202020" stroke-miterlimit="10" stroke-width="1.71"/>
        <g id="Group_6" data-name="Group 6" transform="translate(18.218 9.982)">
          <path id="Path_10" data-name="Path 10" d="M20.643,12.386l-.033,3.725a2.054,2.054,0,0,0,2.044,2.069l18.643.148a2.054,2.054,0,0,0,2.069-2.044l.025-3.725a2.063,2.063,0,0,0-1.376-1.953,1.958,1.958,0,0,0-.668-.115L22.7,10.35h-.049a2.053,2.053,0,0,0-2.019,2.036Z" transform="translate(-20.61 -10.35)" fill="#202020"/>
          <path id="Path_11" data-name="Path 11" d="M23.1,10.35v1.2a1.736,1.736,0,0,0,1.723,1.764l15.866.124A1.755,1.755,0,0,0,42.452,11.7V10.6a1.876,1.876,0,0,0-.659-.115l-18.643-.14Z" transform="translate(-21.048 -10.35)" fill="#f8f8f8"/>
        </g>
      </g>
      <path id="Path_9-2" data-name="Path 9" d="M30.162,44.262c9.608-7.737,21.1-16.164,31.911-22.1q8.11-4.451,16.583-8.176C83.864,11.7,89.386,8.515,95.2,8.268c4.871-.206,8.868,2.794,10.9,7.1" transform="translate(22.714 80.853)" fill="none" stroke="#202020" stroke-miterlimit="10" stroke-width="1.71"/>
      <g id="Group_7" data-name="Group 7" transform="translate(34.003 119.074)">
        <path id="Path_12" data-name="Path 12" d="M9.012,59.751,7.248,56.47a2.056,2.056,0,0,1,.841-2.786l16.426-8.827A2.056,2.056,0,0,1,27.3,45.7l1.764,3.288a2.052,2.052,0,0,1-.3,2.374,1.9,1.9,0,0,1-.536.412L11.8,60.591a.264.264,0,0,0-.041.025,2.053,2.053,0,0,1-2.736-.857Z" transform="translate(-7.003 -44.613)" fill="#202020"/>
        <path id="Path_13" data-name="Path 13" d="M12.594,61.653l-.569-1.063a1.741,1.741,0,0,1,.709-2.365l13.978-7.508a1.749,1.749,0,0,1,2.365.709l.519.964a1.9,1.9,0,0,1-.536.412L12.635,61.62a.264.264,0,0,0-.041.025Z" transform="translate(-7.849 -45.649)" fill="#f8f8f8"/>
      </g>
    </g>
  </g>
</svg>
