<svg xmlns="http://www.w3.org/2000/svg" width="274.456" height="91.708" viewBox="0 0 274.456 91.708">
  <g id="Group_9" data-name="Group 9" transform="translate(1748 1532.884)">
    <g id="Group_19" data-name="Group 19" transform="translate(-2976.346 -2165.587)">
      <g id="workout" transform="translate(1135.006 598)">
        <g id="Group_16" data-name="Group 16">
          <g id="Group_22" data-name="Group 22">
            <g id="Group_9-2" data-name="Group 9" transform="translate(79 -20)">
              <g id="Group_5" data-name="Group 5" transform="translate(1 -3)">
                <g id="Group_3" data-name="Group 3">
                  <path id="Path_4" data-name="Path 4" d="M75.72,67.09a4.886,4.886,0,0,1-.05.66L74.11,78.91,72.12,93.13l-9.37-1.31,2.18-15.53.33-2.35a4.718,4.718,0,0,0-3.37-5.2,42.025,42.025,0,0,0-22.21-.23,41.4,41.4,0,0,0-12.81,5.92,4.719,4.719,0,0,0-1.65,5.76l1.55,3.61,6.15,14.31-8.69,3.74L18.95,89.57,13.72,77.4a4.752,4.752,0,0,1,1.06-5.27,52.394,52.394,0,0,1,10.48-7.84,51.419,51.419,0,0,1,11.98-4.92,52.6,52.6,0,0,1,35.77,3.45,4.724,4.724,0,0,1,2.71,4.27Z" fill="#fff"/>
                  <path id="Path_5" data-name="Path 5" d="M32.92,98.11l-8.69,3.74L18.95,89.57l7.82-5.77Z" fill="#d3d3d3"/>
                  <path id="Path_6" data-name="Path 6" d="M74.11,78.91,72.12,93.13l-9.37-1.31,2.18-15.53Z" fill="#d3d3d3"/>
                </g>
                <g id="Group_4" data-name="Group 4">
                  <path id="Path_7" data-name="Path 7" d="M89.29,126.72a38.089,38.089,0,0,1-6.91,14.08l-50.84,8.61a38.245,38.245,0,1,1,57.75-22.69Z" transform="translate(-0.003 0.001)" fill="#fff"/>
                  <path id="Path_8" data-name="Path 8" d="M49.77,132.35A19.912,19.912,0,1,1,74,118,19.912,19.912,0,0,1,49.77,132.35Zm9.32-36.43a17.687,17.687,0,1,0,12.75,21.52A17.687,17.687,0,0,0,59.09,95.92Z" transform="translate(-2.799 0.857)" fill="#d3d3d3"/>
                </g>
              </g>
              <g id="Group_8" data-name="Group 8" transform="translate(27 80.853)">
                <path id="Path_9" data-name="Path 9" d="M106.1,15.368c2.736,5.786-.486,11.11-6.47,12.577a27.783,27.783,0,0,1-17.62-2.073c-4.764-2.2-8.843-5.654-13.475-8.126A37.108,37.108,0,0,0,43.15,14.317" transform="translate(-4.286)" fill="none" stroke="#202020" stroke-miterlimit="10" stroke-width="1.71"/>
                <g id="Group_6" data-name="Group 6" transform="translate(18.218 9.982)">
                  <path id="Path_10" data-name="Path 10" d="M20.643,12.386l-.033,3.725a2.054,2.054,0,0,0,2.044,2.069l18.643.148a2.054,2.054,0,0,0,2.069-2.044l.025-3.725a2.063,2.063,0,0,0-1.376-1.953,1.958,1.958,0,0,0-.668-.115L22.7,10.35h-.049a2.053,2.053,0,0,0-2.019,2.036Z" transform="translate(-20.61 -10.35)" fill="#202020"/>
                  <path id="Path_11" data-name="Path 11" d="M23.1,10.35v1.2a1.736,1.736,0,0,0,1.723,1.764l15.866.124A1.755,1.755,0,0,0,42.452,11.7V10.6a1.876,1.876,0,0,0-.659-.115l-18.643-.14Z" transform="translate(-21.048 -10.35)" fill="#f8f8f8"/>
                </g>
              </g>
            </g>
            <g id="Group_21" data-name="Group 21" transform="translate(16 1)">
              <path id="Path_1" data-name="Path 1" d="M-59.256-9.168a14.146,14.146,0,0,1-9.216,3.312c-6.528,0-11.472-4.32-11.472-10.944,0-6.672,4.944-10.992,11.472-10.992a14.146,14.146,0,0,1,9.216,3.312v-7.152C-61.944-33.5-65.4-34.32-69.768-34.32c-10.848,0-19.392,6.576-19.392,17.52S-80.616.672-69.768.672c4.368,0,7.824-.816,10.512-2.688Zm21.648-13.344A6.493,6.493,0,0,0-42.264-24.1a6.585,6.585,0,0,0-5.712,3.408l-.048-2.88h-7.44V0H-47.4V-11.808c0-3.744,1.776-5.568,4.368-5.808.192,0,.432-.048.624-.048a5.5,5.5,0,0,1,3.264,1.008ZM-10.68-11.76c0-7.68-5.664-12.48-13.392-12.48-7.584,0-13.344,4.944-13.344,12.48S-31.7.672-24.12.672C-15.336.672-10.68-5.136-10.68-11.76Zm-8.352,0c0,3.7-2.064,6.288-5.04,6.288-2.928,0-4.992-2.592-4.992-6.288s2.064-6.288,4.992-6.288C-21.1-18.048-19.032-15.456-19.032-11.76Zm29.28,4.272a6.035,6.035,0,0,0-3.5-5.856C5.5-13.92,4.1-14.5,2.9-14.976,1.32-15.6.312-16.032.312-16.944v-.288c.144-.624,1.152-1.248,2.88-1.248l.24.048A9.584,9.584,0,0,1,9.144-16.8v-5.952C7.992-23.52,5.5-24.24,2.136-24.24c-4.416,0-8.928,1.92-9.648,6.24-.048.48-.1.96-.1,1.392A6.092,6.092,0,0,0-4.2-10.944,39.154,39.154,0,0,0-.168-9.264c1.68.672,2.592,1.2,2.544,2.208v.1c0,1.056-.912,1.68-2.64,1.68h-.72A10.86,10.86,0,0,1-7.416-7.92v6.768C-5.5.1-3.288.672.216.672c5.568,0,9.6-2.88,9.984-7.344C10.2-6.96,10.248-7.248,10.248-7.488Zm20.592,0a6.035,6.035,0,0,0-3.5-5.856c-1.248-.576-2.64-1.152-3.84-1.632C21.912-15.6,20.9-16.032,20.9-16.944v-.288c.144-.624,1.152-1.248,2.88-1.248l.24.048A9.584,9.584,0,0,1,29.736-16.8v-5.952c-1.152-.768-3.648-1.488-7.008-1.488-4.416,0-8.928,1.92-9.648,6.24-.048.48-.1.96-.1,1.392a6.092,6.092,0,0,0,3.408,5.664,39.154,39.154,0,0,0,4.032,1.68c1.68.672,2.592,1.2,2.544,2.208v.1c0,1.056-.912,1.68-2.64,1.68h-.72a10.86,10.86,0,0,1-6.432-2.64v6.768C15.1.1,17.3.672,20.808.672c5.568,0,9.6-2.88,9.984-7.344C30.792-6.96,30.84-7.248,30.84-7.488ZM56.088-33.6H35.16V0h8.688V-14.064H55.656v-5.9H43.848v-7.584h12.24Zm13.056,3.744a4.272,4.272,0,0,0-4.272-4.224,4.261,4.261,0,0,0-4.224,4.224,4.272,4.272,0,0,0,4.224,4.272A4.281,4.281,0,0,0,69.144-29.856Zm-.24,6.288H60.84V0H68.9ZM90.456-6.912A6.73,6.73,0,0,1,86.28-5.52a7.089,7.089,0,0,1-1.008-.048c-1.392-.24-2.16-1.152-2.16-2.976v-9.312h6.816v-5.712H83.112v-6.96L71.88-20.16v2.3h3.168L75-7.584C75-2.3,78.264.576,83.592.576a12.611,12.611,0,0,0,6.864-1.632Z" transform="translate(261.34 102.587)" fill="#fff"/>
            </g>
            <path id="Path_9-2" data-name="Path 9" d="M30.162,44.262c9.608-7.737,21.1-16.164,31.911-22.1q8.11-4.451,16.583-8.176C83.864,11.7,89.386,8.515,95.2,8.268c4.871-.206,8.868,2.794,10.9,7.1" transform="translate(101.714 60.853)" fill="none" stroke="#202020" stroke-miterlimit="10" stroke-width="1.71"/>
            <g id="Group_7" data-name="Group 7" transform="translate(113.003 99.074)">
              <path id="Path_12" data-name="Path 12" d="M9.012,59.751,7.248,56.47a2.056,2.056,0,0,1,.841-2.786l16.426-8.827A2.056,2.056,0,0,1,27.3,45.7l1.764,3.288a2.052,2.052,0,0,1-.3,2.374,1.9,1.9,0,0,1-.536.412L11.8,60.591a.264.264,0,0,0-.041.025,2.053,2.053,0,0,1-2.736-.857Z" transform="translate(-7.003 -44.613)" fill="#202020"/>
              <path id="Path_13" data-name="Path 13" d="M12.594,61.653l-.569-1.063a1.741,1.741,0,0,1,.709-2.365l13.978-7.508a1.749,1.749,0,0,1,2.365.709l.519.964a1.9,1.9,0,0,1-.536.412L12.635,61.62a.264.264,0,0,0-.041.025Z" transform="translate(-7.849 -45.649)" fill="#f8f8f8"/>
            </g>
          </g>
        </g>
      </g>
    </g>
  </g>
</svg>
